#N canvas 634 36 431 229 12;
#X declare -path ssr;
#X obj 9 16 declare -path ssr;
#X obj 17 155 ssr_binaural~ 2 hrirs_fabian_min_phase_eq.wav;
#X obj 18 187 dac~;
#X text 142 190 SOFA files can also be used!;
#X obj 358 106 *~ 0.1;
#X obj 359 82 noise~;
#X obj 289 82 osc~ 440;
#X obj 289 106 *~ 0.2;
#X msg 35 53 src 1 pos -2 0;
#X msg 36 83 src 1 pos -1 3;
#X msg 156 53 src 2 pos 2 0;
#X msg 157 83 src 2 pos 1 3;
#X connect 1 0 2 0;
#X connect 1 1 2 1;
#X connect 4 0 1 1;
#X connect 5 0 4 0;
#X connect 6 0 7 0;
#X connect 7 0 1 0;
#X connect 8 0 1 0;
#X connect 9 0 1 0;
#X connect 10 0 1 0;
#X connect 11 0 1 0;
