#N canvas 877 651 707 188 10;
#X obj 18 127 dac~ 1 2 3 4 5 6 7 8 9 10 11 12 13 14 15 16 17 18 19
20 21 22 23 24 25 26 27 28 29 30 31 32 33 34 35 36 37 38 39 40 41 42
43 44 45 46 47 48 49 50 51 52 53 54 55 56;
#X obj 30 50 osc~ 440;
#X obj 165 51 noise~;
#X obj 30 71 *~ 0.01;
#X obj 165 73 *~ 0.01;
#X obj 18 100 ssr_dca~ 2 circle.asd;
#X text 104 14 <-- open this!;
#X obj 19 15 ssr_messages;
#X connect 1 0 3 0;
#X connect 2 0 4 0;
#X connect 3 0 5 0;
#X connect 4 0 5 1;
#X connect 5 0 0 0;
#X connect 5 1 0 1;
#X connect 5 2 0 2;
#X connect 5 3 0 3;
#X connect 5 4 0 4;
#X connect 5 5 0 5;
#X connect 5 6 0 6;
#X connect 5 7 0 7;
#X connect 5 8 0 8;
#X connect 5 9 0 9;
#X connect 5 10 0 10;
#X connect 5 11 0 11;
#X connect 5 12 0 12;
#X connect 5 13 0 13;
#X connect 5 14 0 14;
#X connect 5 15 0 15;
#X connect 5 16 0 16;
#X connect 5 17 0 17;
#X connect 5 18 0 18;
#X connect 5 19 0 19;
#X connect 5 20 0 20;
#X connect 5 21 0 21;
#X connect 5 22 0 22;
#X connect 5 23 0 23;
#X connect 5 24 0 24;
#X connect 5 25 0 25;
#X connect 5 26 0 26;
#X connect 5 27 0 27;
#X connect 5 28 0 28;
#X connect 5 29 0 29;
#X connect 5 30 0 30;
#X connect 5 31 0 31;
#X connect 5 32 0 32;
#X connect 5 33 0 33;
#X connect 5 34 0 34;
#X connect 5 35 0 35;
#X connect 5 36 0 36;
#X connect 5 37 0 37;
#X connect 5 38 0 38;
#X connect 5 39 0 39;
#X connect 5 40 0 40;
#X connect 5 41 0 41;
#X connect 5 42 0 42;
#X connect 5 43 0 43;
#X connect 5 44 0 44;
#X connect 5 45 0 45;
#X connect 5 46 0 46;
#X connect 5 47 0 47;
#X connect 5 48 0 48;
#X connect 5 49 0 49;
#X connect 5 50 0 50;
#X connect 5 51 0 51;
#X connect 5 52 0 52;
#X connect 5 53 0 53;
#X connect 5 54 0 54;
#X connect 5 55 0 55;
#X connect 7 0 5 0;
