#N canvas 1106 534 324 223 10;
#X obj 47 77 osc~ 440;
#X obj 47 101 *~ 0.2;
#X obj 177 106 *~ 0.1;
#X obj 176 82 noise~;
#X text 115 21 <-- open this!;
#X obj 30 22 ssr_messages;
#X obj 29 162 dac~ 1 2 3 4 5 6 7 8;
#X obj 30 135 ssr_vbap~ 2 8channels.asd;
#X connect 0 0 1 0;
#X connect 1 0 7 0;
#X connect 2 0 7 1;
#X connect 3 0 2 0;
#X connect 5 0 7 0;
#X connect 7 0 6 0;
#X connect 7 1 6 1;
#X connect 7 2 6 2;
#X connect 7 3 6 3;
#X connect 7 4 6 4;
#X connect 7 5 6 5;
#X connect 7 6 6 6;
#X connect 7 7 6 7;
