#N canvas 820 61 1036 923 10;
#X msg 33 93 src 1 pos -1 1;
#X msg 33 116 src 1 pos 0 1;
#X msg 35 139 src 1 pos 1 1;
#X msg 49 169 src 2 pos -1 1;
#X msg 50 192 src 2 pos 0 1;
#X msg 51 215 src 2 pos 1 1;
#X obj 21 251 s \$0_msg;
#X obj 12 12 r \$0_msg;
#X obj 12 33 outlet;
#X msg 59 720 nonsense 1 pos 1 1;
#X obj 33 945 s \$0_msg;
#X msg 65 742 1 1 pos 1 1;
#X msg 75 787 src 0 pos 1 1;
#X msg 79 809 src -1 pos 1 1;
#X msg 70 766 src 1.1 pos 1 1;
#X msg 33 633 src;
#X msg 41 655 src 1;
#X msg 47 675 src 1 pos;
#X msg 53 697 src 1 pos 1;
#X msg 84 831 src 1 nonsense 1 1;
#X msg 90 855 src 1 1 1 1;
#X msg 97 879 src 1 pos nonsense 1;
#X msg 101 903 src 1 pos 1 nonsense;
#X msg 77 404 ref azi 90;
#X text 21 68 SOURCE POSITION;
#X text 183 67 SOURCE AZIMUTH;
#X obj 190 208 s \$0_msg;
#X msg 202 153 src 1 azi -90;
#X msg 187 109 src 1 azi 90;
#X msg 195 131 src 1 azi 180;
#X msg 209 177 src 1 azi 0;
#X obj 270 943 s \$0_msg;
#X msg 218 637 src 1 azi;
#X msg 237 679 src 1 azi nonsense;
#X msg 228 659 src 1 azi 0 0;
#X obj 342 185 s \$0_msg;
#X text 330 67 SOURCE MUTE;
#X msg 333 94 src 1 mute 1;
#X msg 342 114 src 1 mute 0;
#X msg 353 134 src 2 mute 1;
#X msg 362 154 src 2 mute 0;
#X obj 897 16 loadbang;
#X obj 897 57 s \$0_msg;
#X msg 897 37 src 1 pos -1 1 \, src 2 pos 1 1 \,;
#X obj 663 184 s \$0_msg;
#X msg 650 93 src 1 model plane;
#X msg 662 115 src 1 model point;
#X msg 674 137 src 2 model plane;
#X msg 686 159 src 2 model point;
#X text 649 68 SOURCE MODEL (only ssr_wfs~);
#X text 167 85 (only for plane waves);
#X msg 250 703 src 1 mute;
#X msg 258 723 src 1 mute nonsense;
#X msg 267 745 src 1 mute true;
#X msg 276 768 src 1 mute 1 1;
#X msg 286 810 src 1 mute 1.1;
#X text 284 792 this actually works:;
#X msg 309 873 src 1 model 0;
#X msg 313 895 src 1 model nonsense;
#X msg 318 916 src 1 model point source;
#X obj 489 185 s \$0_msg;
#X text 473 66 SOURCE GAIN;
#X text 474 82 (linear! from 0..1);
#X msg 508 153 src 1 gain 2;
#X msg 496 129 src 1 gain 1;
#X msg 486 105 src 1 gain 0.5;
#X msg 295 831 src 1 gain nonsense;
#X msg 303 852 src 1 gain 0 0;
#X obj 24 498 s \$0_msg;
#X text 20 296 REFERENCE CONTROLS;
#X msg 49 349 ref pos 0 0;
#X msg 44 328 ref pos -2 0;
#X msg 55 370 ref pos 2 0;
#X msg 82 426 ref azi 180;
#X msg 89 446 ref azi -90;
#X msg 96 468 ref azi 0;
#X text 171 467 <-- default!;
#X obj 513 957 s \$0_msg;
#X msg 512 609 ref 0;
#X msg 519 629 ref nonsense;
#X msg 525 649 ref pos nonsense;
#X msg 533 669 ref pos 0;
#X msg 547 710 ref azi nonsense;
#X msg 552 731 ref azi 0 0;
#X msg 560 761 ref offset nonsense;
#X msg 565 784 ref offset 0;
#X msg 571 806 ref offset pos 0;
#X msg 586 850 ref offset azi nonsense;
#X msg 594 872 ref offset azi 0 0;
#X msg 609 906 vol nonsense;
#X msg 616 929 vol 0 0;
#X text 288 299 REFERENCE OFFSET;
#X text 288 319 (may not work in some renderers!);
#X obj 308 515 s \$0_msg;
#X text 483 487 <-- default!;
#X msg 305 346 ref offset pos -2 0;
#X msg 310 367 ref offset pos 0 0;
#X msg 316 388 ref offset pos 2 0;
#X msg 338 422 ref offset azi 90;
#X msg 343 444 ref offset azi 180;
#X msg 349 464 ref offset azi -90;
#X msg 357 486 ref offset azi 0;
#X obj 593 408 s \$0_msg;
#X text 567 292 MASTER VOLUME;
#X text 729 291 PROCESSING ON/OFF;
#X text 84 27 All parameter changes happen smoothly within one audio
block!;
#X obj 752 387 s \$0_msg;
#X text 729 310 (= inverse master mute);
#X msg 753 338 processing 0;
#X msg 761 360 processing 1;
#X text 561 309 (linear! from 0..1);
#X msg 599 338 vol 0.5;
#X msg 605 360 vol 1;
#X msg 612 383 vol 2;
#X obj 746 526 s \$0_msg;
#X obj 746 473 bng 15 250 50 0 empty empty empty 17 7 0 10 -262144
-1 -1;
#X text 36 596 INVALID MESSAGES;
#N canvas 261 385 521 399 circle 0;
#X obj 121 306 outlet;
#X obj 158 200 cos;
#X obj 126 201 sin;
#X obj 126 154 line;
#X obj 105 83 metro;
#X obj 126 109 f;
#X obj 137 61 t f f;
#X msg 126 131 0 \, 6.28319 \$1;
#X text 194 200 angle in radians;
#X obj 94 -3 tgl 15 0 empty empty empty 17 7 0 10 -262144 -1 -1 0 1
;
#X msg 30 -14 0;
#X obj 94 19 t f b;
#X obj 94 -34 inlet;
#X obj 30 -35 loadbang;
#X obj 221 -32 inlet;
#X text 278 -34 time (msec) for 1 rotation;
#X text 145 -34 on/off;
#X obj 126 176 t f f;
#X text 215 23 first argument: source number;
#X text 217 43 second argument: circle radius (meters);
#X obj 117 234 * 3;
#X obj 158 233 * 3;
#X text 201 233 radius;
#X obj 121 263 pack f f;
#X msg 121 285 src 2 pos \$1 \$2;
#X obj 155 -9 t b f;
#X obj 151 14 0;
#X msg 32 131 stop;
#X obj 32 110 select 0;
#X text 252 285 source nr 2 is used;
#X obj 137 40 2000;
#X connect 1 0 21 0;
#X connect 2 0 20 0;
#X connect 3 0 17 0;
#X connect 4 0 5 0;
#X connect 5 0 7 0;
#X connect 6 0 4 1;
#X connect 6 1 5 1;
#X connect 7 0 3 0;
#X connect 9 0 11 0;
#X connect 9 0 26 1;
#X connect 9 0 28 0;
#X connect 10 0 9 0;
#X connect 11 0 4 0;
#X connect 11 1 30 0;
#X connect 12 0 9 0;
#X connect 13 0 10 0;
#X connect 14 0 25 0;
#X connect 17 0 2 0;
#X connect 17 1 1 0;
#X connect 20 0 23 0;
#X connect 21 0 23 1;
#X connect 23 0 24 0;
#X connect 24 0 0 0;
#X connect 25 0 26 0;
#X connect 25 1 30 1;
#X connect 26 0 11 0;
#X connect 27 0 3 0;
#X connect 28 0 27 0;
#X connect 30 0 6 0;
#X restore 746 500 pd circle;
#X text 703 449 start/stop;
#X text 816 437 time for one turn (msec);
#X msg 819 479 4000;
#X msg 814 458 2000;
#X text 81 10 this abstraction is used in ssr_*~-help.pd;
#X msg 109 923 src 1 pos 1 1 1 1;
#X msg 540 689 ref pos 0 0 0 0;
#X msg 579 828 ref offset pos 0 0 0 0;
#X connect 0 0 6 0;
#X connect 1 0 6 0;
#X connect 2 0 6 0;
#X connect 3 0 6 0;
#X connect 4 0 6 0;
#X connect 5 0 6 0;
#X connect 7 0 8 0;
#X connect 9 0 10 0;
#X connect 11 0 10 0;
#X connect 12 0 10 0;
#X connect 13 0 10 0;
#X connect 14 0 10 0;
#X connect 15 0 10 0;
#X connect 16 0 10 0;
#X connect 17 0 10 0;
#X connect 18 0 10 0;
#X connect 19 0 10 0;
#X connect 20 0 10 0;
#X connect 21 0 10 0;
#X connect 22 0 10 0;
#X connect 23 0 68 0;
#X connect 27 0 26 0;
#X connect 28 0 26 0;
#X connect 29 0 26 0;
#X connect 30 0 26 0;
#X connect 32 0 31 0;
#X connect 33 0 31 0;
#X connect 34 0 31 0;
#X connect 37 0 35 0;
#X connect 38 0 35 0;
#X connect 39 0 35 0;
#X connect 40 0 35 0;
#X connect 41 0 43 0;
#X connect 43 0 42 0;
#X connect 45 0 44 0;
#X connect 46 0 44 0;
#X connect 47 0 44 0;
#X connect 48 0 44 0;
#X connect 51 0 31 0;
#X connect 52 0 31 0;
#X connect 53 0 31 0;
#X connect 54 0 31 0;
#X connect 55 0 31 0;
#X connect 57 0 31 0;
#X connect 58 0 31 0;
#X connect 59 0 31 0;
#X connect 63 0 60 0;
#X connect 64 0 60 0;
#X connect 65 0 60 0;
#X connect 66 0 31 0;
#X connect 67 0 31 0;
#X connect 70 0 68 0;
#X connect 71 0 68 0;
#X connect 72 0 68 0;
#X connect 73 0 68 0;
#X connect 74 0 68 0;
#X connect 75 0 68 0;
#X connect 78 0 77 0;
#X connect 79 0 77 0;
#X connect 80 0 77 0;
#X connect 81 0 77 0;
#X connect 82 0 77 0;
#X connect 83 0 77 0;
#X connect 84 0 77 0;
#X connect 85 0 77 0;
#X connect 86 0 77 0;
#X connect 87 0 77 0;
#X connect 88 0 77 0;
#X connect 89 0 77 0;
#X connect 90 0 77 0;
#X connect 95 0 93 0;
#X connect 96 0 93 0;
#X connect 97 0 93 0;
#X connect 98 0 93 0;
#X connect 99 0 93 0;
#X connect 100 0 93 0;
#X connect 101 0 93 0;
#X connect 108 0 106 0;
#X connect 109 0 106 0;
#X connect 111 0 102 0;
#X connect 112 0 102 0;
#X connect 113 0 102 0;
#X connect 115 0 117 0;
#X connect 117 0 114 0;
#X connect 120 0 117 1;
#X connect 121 0 117 1;
#X connect 123 0 10 0;
#X connect 124 0 77 0;
#X connect 125 0 77 0;
