#N canvas 578 61 866 978 12;
#X obj 29 199 ../flext/ssr_messages;
#X obj 13 548 netsend;
#X msg 37 517 disconnect;
#X msg 13 125 connect localhost 1174;
#X obj 30 471 list trim;
#X obj 30 447 list prepend send;
#X msg 42 248 transport 0;
#X msg 42 273 transport 1;
#N canvas 1371 114 492 514 subscribe 0;
#X obj 11 471 outlet;
#X msg 53 108 subscribe transport-frame;
#X msg 53 128 unsubscribe transport-frame;
#X msg 51 207 subscribe master-metering;
#X msg 51 227 unsubscribe master-metering;
#X msg 52 157 subscribe source-metering;
#X msg 52 177 unsubscribe source-metering;
#X msg 73 367 source-numbers 1;
#X msg 73 387 source-numbers 0;
#X msg 73 421 quaternions 1;
#X msg 73 441 quaternions 0;
#X msg 51 306 subscribe cpu-load;
#X msg 51 326 unsubscribe cpu-load;
#X msg 51 257 subscribe output-activity;
#X msg 51 277 unsubscribe output-activity;
#X msg 52 81 unsubscribe renderer;
#X msg 52 61 subscribe renderer;
#X msg 52 13 subscribe scene;
#X msg 52 33 unsubscribe scene;
#X text 200 386 receive string IDs;
#X text 177 440 receive "rot" angles;
#X text 179 420 receive "quat" quaternions;
#X text 199 367 receive numeric IDs (starting with 1);
#X connect 1 0 0 0;
#X connect 2 0 0 0;
#X connect 3 0 0 0;
#X connect 4 0 0 0;
#X connect 5 0 0 0;
#X connect 6 0 0 0;
#X connect 7 0 0 0;
#X connect 8 0 0 0;
#X connect 9 0 0 0;
#X connect 10 0 0 0;
#X connect 11 0 0 0;
#X connect 12 0 0 0;
#X connect 13 0 0 0;
#X connect 14 0 0 0;
#X connect 15 0 0 0;
#X connect 16 0 0 0;
#X connect 17 0 0 0;
#X connect 18 0 0 0;
#X restore 57 412 pd subscribe;
#X text 11 12 How to connect to the SoundScape Renderer (SSR) from
Pd;
#X text 11 45 The SSR has to be running with the FUDI flag: --fudi-server
;
#X text 11 64 By default \, port 1174 is used.;
#X text 13 100 1 Connect to the SSR;
#X text 26 151 2 Send some messages;
#X text 34 175 The same messages as for the SSR externals are supported:
;
#X msg 54 360 tracker reset;
#X msg 88 298 60;
#X msg 123 298 120;
#X msg 50 298 0;
#X msg 49 328 seek \$1;
#X text 41 226 3 Send some more messages;
#X text 58 387 4 If you want to receive something \, subscribe!;
#X text 37 493 5 If you are done \, disconnect;
#X obj 13 576 tgl 15 0 empty empty connected 17 7 0 10 -262144 -1 -1
0 1;
#X obj 95 1039 route 1;
#X msg 153 966 1;
#X msg 193 966 2;
#X floatatom 232 966 5 3 9999 0 - - -;
#X symbolatom 463 1062 10 0 0 0 model - -;
#X obj 463 1038 symbol;
#X floatatom 174 703 5 0 0 0 y - -;
#X floatatom 134 683 5 0 0 0 x - -;
#X floatatom 290 682 5 0 0 0 azimuth - -;
#X floatatom 240 600 5 0 0 0 master_volume - -;
#X obj 295 561 route transport frame;
#X obj 694 1029 route output-activity;
#X obj 854 1030 print src;
#X obj 290 656 unpack f f f;
#X obj 134 626 route pos rot quat offset;
#X floatatom 330 704 5 0 0 0 elevation - -;
#X floatatom 371 725 5 0 0 0 roll - -;
#X floatatom 440 685 5 0 0 0 x - -;
#X floatatom 480 707 5 0 0 0 y - -;
#X floatatom 521 728 5 0 0 0 z - -;
#X floatatom 565 754 5 0 0 0 w - -;
#X obj 440 659 unpack f f f f;
#X obj 153 792 route pos rot quat;
#X obj 321 627 print ref;
#X obj 838 536 print unknown_command;
#X obj 293 793 print ref_offset;
#X obj 134 659 unpack f f f;
#X floatatom 215 725 5 0 0 0 z - -;
#X obj 18 668 vu 15 120 empty empty -1 -8 0 10 -66577 -1 1 0;
#X text 628 699 <-- reference;
#X floatatom 177 883 5 0 0 0 y - -;
#X floatatom 137 863 5 0 0 0 x - -;
#X floatatom 293 862 5 0 0 0 azimuth - -;
#X obj 293 836 unpack f f f;
#X floatatom 333 884 5 0 0 0 elevation - -;
#X floatatom 374 905 5 0 0 0 roll - -;
#X floatatom 443 865 5 0 0 0 x - -;
#X floatatom 483 887 5 0 0 0 y - -;
#X floatatom 524 908 5 0 0 0 z - -;
#X floatatom 568 934 5 0 0 0 w - -;
#X obj 443 839 unpack f f f f;
#X obj 137 839 unpack f f f;
#X floatatom 218 905 5 0 0 0 z - -;
#X text 631 879 <-- reference offset;
#X floatatom 367 589 12 0 0 0 - - -;
#X obj 295 592 tgl 15 0 empty empty rolling 17 7 0 10 -262144 -1 -1
1 1;
#X obj 476 568 tgl 15 0 empty empty processing 17 7 0 10 -262144 -1
-1 1 1;
#X floatatom 736 566 10 0 0 0 samplerate - -;
#X symbolatom 649 617 20 0 0 0 renderer-name - -;
#X text 159 297 seconds;
#X obj 649 593 symbol;
#X obj 476 535 route processing cpu-load renderer-name samplerate;
#X floatatom 562 589 5 0 0 0 cpu-load - -;
#X obj 17 613 rmstodb;
#X obj 17 639 - 100;
#X obj 22 1047 vu 15 120 empty empty -1 -8 0 10 -66577 -1 1 0;
#X obj 21 992 rmstodb;
#X obj 21 1018 - 100;
#X obj 95 1067 route pos rot quat;
#X floatatom 135 1170 5 0 0 0 y - -;
#X floatatom 95 1150 5 0 0 0 x - -;
#X floatatom 251 1149 5 0 0 0 azimuth - -;
#X obj 251 1123 unpack f f f;
#X floatatom 291 1171 5 0 0 0 elevation - -;
#X floatatom 332 1192 5 0 0 0 roll - -;
#X floatatom 401 1152 5 0 0 0 x - -;
#X floatatom 441 1174 5 0 0 0 y - -;
#X floatatom 482 1195 5 0 0 0 z - -;
#X floatatom 526 1221 5 0 0 0 w - -;
#X obj 401 1126 unpack f f f f;
#X obj 95 1126 unpack f f f;
#X floatatom 176 1192 5 0 0 0 z - -;
#X floatatom 402 1023 5 0 0 0 volume - -;
#X obj 429 1001 tgl 15 0 empty empty mute 17 7 0 10 -262144 -1 -1 0
1;
#X obj 494 1001 route model name fixed active;
#X obj 644 1061 tgl 15 0 empty empty active 17 7 0 10 -262144 -1 -1
1 1;
#X symbolatom 544 1086 30 0 0 0 name - -;
#X obj 544 1062 symbol;
#X obj 594 1032 tgl 15 0 empty empty fixed 17 7 0 10 -262144 -1 -1
0 1;
#X obj 95 572 route src ref level vol;
#X obj 357 972 route level vol mute;
#X symbolatom 214 1014 10 0 0 0 - - -;
#X text 178 995 ... or string ID:;
#X text 105 943 select source number ...;
#X obj 168 1039 route .ssr:0;
#X connect 0 0 5 0;
#X connect 1 0 23 0;
#X connect 1 1 103 0;
#X connect 2 0 1 0;
#X connect 3 0 1 0;
#X connect 4 0 1 0;
#X connect 5 0 4 0;
#X connect 6 0 5 0;
#X connect 7 0 5 0;
#X connect 8 0 5 0;
#X connect 15 0 5 0;
#X connect 16 0 19 0;
#X connect 17 0 19 0;
#X connect 18 0 19 0;
#X connect 19 0 5 0;
#X connect 24 0 82 0;
#X connect 24 1 108 0;
#X connect 25 0 24 1;
#X connect 26 0 24 1;
#X connect 27 0 24 1;
#X connect 29 0 28 0;
#X connect 34 0 69 0;
#X connect 34 1 68 0;
#X connect 34 2 75 0;
#X connect 35 1 36 0;
#X connect 37 0 32 0;
#X connect 37 1 39 0;
#X connect 37 2 40 0;
#X connect 38 0 50 0;
#X connect 38 1 37 0;
#X connect 38 2 45 0;
#X connect 38 3 46 0;
#X connect 38 4 47 0;
#X connect 45 0 41 0;
#X connect 45 1 42 0;
#X connect 45 2 43 0;
#X connect 45 3 44 0;
#X connect 46 0 65 0;
#X connect 46 1 57 0;
#X connect 46 2 64 0;
#X connect 46 3 49 0;
#X connect 50 0 31 0;
#X connect 50 1 30 0;
#X connect 50 2 51 0;
#X connect 57 0 56 0;
#X connect 57 1 58 0;
#X connect 57 2 59 0;
#X connect 64 0 60 0;
#X connect 64 1 61 0;
#X connect 64 2 62 0;
#X connect 64 3 63 0;
#X connect 65 0 55 0;
#X connect 65 1 54 0;
#X connect 65 2 66 0;
#X connect 74 0 72 0;
#X connect 75 0 70 0;
#X connect 75 1 76 0;
#X connect 75 2 74 0;
#X connect 75 3 71 0;
#X connect 75 4 48 0;
#X connect 77 0 78 0;
#X connect 78 0 52 0;
#X connect 80 0 81 0;
#X connect 81 0 79 0;
#X connect 82 0 94 0;
#X connect 82 1 86 0;
#X connect 82 2 93 0;
#X connect 82 3 104 0;
#X connect 86 0 85 0;
#X connect 86 1 87 0;
#X connect 86 2 88 0;
#X connect 93 0 89 0;
#X connect 93 1 90 0;
#X connect 93 2 91 0;
#X connect 93 3 92 0;
#X connect 94 0 84 0;
#X connect 94 1 83 0;
#X connect 94 2 95 0;
#X connect 98 0 29 0;
#X connect 98 1 101 0;
#X connect 98 2 102 0;
#X connect 98 3 99 0;
#X connect 98 4 35 0;
#X connect 101 0 100 0;
#X connect 103 0 24 0;
#X connect 103 1 38 0;
#X connect 103 2 77 0;
#X connect 103 3 33 0;
#X connect 103 4 34 0;
#X connect 104 0 80 0;
#X connect 104 1 96 0;
#X connect 104 2 97 0;
#X connect 104 3 98 0;
#X connect 105 0 108 1;
#X connect 108 0 82 0;
