#N canvas 870 549 450 300 10;
#X obj 60 223 dac~;
#X obj 64 43 osc~ 440;
#X obj 64 78 *~ 0.2;
#X msg 200 39 help;
#X msg 198 64 hello;
#X msg 199 89 hello 2;
#X obj 60 152 simpleprocessor~ 2 2 1;
#X connect 1 0 2 0;
#X connect 2 0 6 1;
#X connect 2 0 6 0;
#X connect 3 0 6 0;
#X connect 4 0 6 0;
#X connect 5 0 6 0;
#X connect 6 0 0 0;
#X connect 6 1 0 1;
